<?xml version="1.0" encoding="UTF-8" standalone="no"?><!-- Generator: Gravit.io --><svg xmlns="http://www.w3.org/2000/svg" xmlns:xlink="http://www.w3.org/1999/xlink" style="isolation:isolate" viewBox="0 0 512 512" width="512pt" height="512pt"><defs><clipPath id="_clipPath_8C5izdJ0sH9w7nD5UuBTlpktuZWEWJn8"><rect width="512" height="512"/></clipPath></defs><g clip-path="url(#_clipPath_8C5izdJ0sH9w7nD5UuBTlpktuZWEWJn8)"><path d=" M 113.969 270.246 C 113.969 301.718 88.456 327.231 56.985 327.231 C 25.513 327.231 0 301.718 0 270.246 C 0 238.775 25.513 213.262 56.985 213.262 C 88.456 213.262 113.969 238.775 113.969 270.246 Z  M 56.985 384.215 C 41.249 384.215 28.492 396.972 28.492 412.708 C 28.492 428.443 41.249 441.2 56.985 441.2 C 72.72 441.2 85.477 428.443 85.477 412.708 C 85.477 396.972 72.72 384.215 56.985 384.215 Z  M 56.985 70.8 C 25.513 70.8 0 96.313 0 127.785 C 0 159.256 25.513 184.769 56.985 184.769 C 88.456 184.769 113.969 159.256 113.969 127.785 C 113.969 96.313 88.456 70.8 56.985 70.8 Z  M 199.446 241.754 C 183.71 241.754 170.954 254.51 170.954 270.246 C 170.954 285.982 183.71 298.738 199.446 298.738 C 215.182 298.738 227.938 285.982 227.938 270.246 C 227.938 254.51 215.182 241.754 199.446 241.754 Z  M 199.446 384.215 C 183.71 384.215 170.954 396.972 170.954 412.708 C 170.954 428.443 183.71 441.2 199.446 441.2 C 215.182 441.2 227.938 428.443 227.938 412.708 C 227.938 396.972 215.182 384.215 199.446 384.215 Z  M 199.446 70.8 C 167.975 70.8 142.462 96.313 142.462 127.785 C 142.462 159.256 167.975 184.769 199.446 184.769 C 230.918 184.769 256.431 159.256 256.431 127.785 C 256.431 96.313 230.918 70.8 199.446 70.8 Z  M 339.904 241.754 C 324.169 241.754 311.412 254.51 311.412 270.246 C 311.412 285.982 324.169 298.738 339.904 298.738 C 355.64 298.738 368.397 285.982 368.397 270.246 C 368.397 254.51 355.64 241.754 339.904 241.754 Z  M 339.904 384.215 C 324.169 384.215 311.412 396.972 311.412 412.708 C 311.412 428.443 324.169 441.2 339.904 441.2 C 355.64 441.2 368.397 428.443 368.397 412.708 C 368.397 396.972 355.64 384.215 339.904 384.215 Z  M 339.904 70.8 C 308.433 70.8 282.92 96.313 282.92 127.785 C 282.92 159.256 308.433 184.769 339.904 184.769 C 371.376 184.769 396.889 159.256 396.889 127.785 C 396.889 96.313 371.376 70.8 339.904 70.8 Z  M 482.366 241.754 C 466.63 241.754 453.874 254.51 453.874 270.246 C 453.874 285.982 466.63 298.738 482.366 298.738 C 498.102 298.738 510.858 285.982 510.858 270.246 C 510.858 254.51 498.102 241.754 482.366 241.754 Z  M 482.366 384.215 C 466.63 384.215 453.874 396.972 453.874 412.708 C 453.874 428.443 466.63 441.2 482.366 441.2 C 498.102 441.2 510.858 428.443 510.858 412.708 C 510.858 396.972 498.102 384.215 482.366 384.215 Z  M 482.366 99.292 C 466.63 99.292 453.874 112.049 453.874 127.785 C 453.874 143.52 466.63 156.277 482.366 156.277 C 498.102 156.277 510.858 143.52 510.858 127.785 C 510.858 112.049 498.102 99.292 482.366 99.292 Z " fill="#F2F2F2"/></g></svg>
