<?xml version="1.0" encoding="UTF-8" standalone="no"?><!-- Generator: Gravit.io --><svg xmlns="http://www.w3.org/2000/svg" xmlns:xlink="http://www.w3.org/1999/xlink" style="isolation:isolate" viewBox="141 297.96 507.339 471.04" width="507.339pt" height="471.04pt"><g><g><g><g><path d=" M 537.075 443.463 L 537.075 443.463 L 564.723 427.335 C 504.903 324.571 375.966 285.313 269.027 337.304 L 269.027 297.96 L 237.027 297.96 L 237.027 393.96 L 333.027 393.96 L 333.027 361.96 L 292.147 361.96 C 382.665 323.563 487.612 358.486 537.075 443.463 Z " fill="rgb(204,64,64)"/><path d=" M 245.027 692.775 C 170.84 632.524 151.314 527.353 198.931 444.488 L 171.187 428.488 C 116.876 523.063 137.426 642.887 220.147 713.96 L 181.027 713.96 L 181.027 745.96 L 277.027 745.96 L 277.027 649.96 L 245.027 649.96 L 245.027 692.775 L 245.027 692.775 Z " fill="rgb(204,64,64)"/><path d=" M 580.451 499.048 L 512.579 566.936 L 535.203 589.56 L 562.403 562.36 C 551.734 661.49 468.201 736.724 368.499 737 L 368.499 769 C 487.289 768.688 585.833 677.011 594.707 558.552 L 625.715 589.56 L 648.339 566.936 L 580.451 499.048 Z " fill="rgb(204,64,64)"/></g></g></g></g></svg>