<?xml version="1.0" encoding="UTF-8" standalone="no"?><!-- Generator: Gravit.io --><svg xmlns="http://www.w3.org/2000/svg" xmlns:xlink="http://www.w3.org/1999/xlink" style="isolation:isolate" viewBox="0 0 128 128" width="128pt" height="128pt"><defs><clipPath id="_clipPath_CHRnLOITGqiXLlZjYLaUfMylStiUiIRD"><rect width="128" height="128"/></clipPath></defs><g clip-path="url(#_clipPath_CHRnLOITGqiXLlZjYLaUfMylStiUiIRD)"><path d=" M 69.096 31.645 C 68.865 31.712 68.805 31.816 68.577 32.011 C 68.393 32.168 68.238 32.28 68.059 32.434 C 67.651 32.785 67.411 33.003 67.052 33.305 C 65.269 34.805 62.85 37.142 61.102 38.778 C 58.391 41.317 55.947 43.762 53.346 46.287 C 48.441 51.049 42.882 56.766 37.972 61.357 C 33.914 65.151 30.434 68.558 26.194 72.351 C 24.574 73.801 23.553 75.121 21.346 75.197 C 17.705 75.323 12.902 72.224 10.446 70.814 C 8.299 69.583 2.598 66.23 -0.15 66.137 L 1.864 68.903 C 3.303 71.1 5.724 75.885 6.887 78.214 C 10.881 86.213 16.273 94.589 23.136 100.161 C 24.891 101.586 26.481 102.783 28.71 104.132 C 29.687 104.723 30.685 105.215 31.778 105.834 C 32.157 106.049 34.786 107.277 35.11 107.276 C 34.39 106.554 33.649 105.673 33.064 104.985 C 30.452 101.912 24.64 95.938 22.894 92.889 C 21.428 90.329 21.091 88.761 22.72 86.192 C 24.582 83.254 28.924 79.619 31.648 77.289 C 38.277 71.62 44.256 66.485 51.191 61.102 C 54.478 58.551 57.895 55.949 61.429 53.427 C 64.896 50.954 68.381 48.57 72 46.178 L 77.465 42.7 C 77.972 42.409 82.95 39.446 83.029 39.347 L 87.9 36.66 C 89.536 35.736 91.124 34.964 92.857 34.031 C 97.94 31.294 108.035 26.833 113.82 24.792 C 115.718 24.122 117.528 23.489 119.449 22.833 L 125.205 21.03 C 124.739 20.79 118.379 20.724 117.207 20.724 C 112.491 20.723 109.598 20.855 105.095 21.211 C 101.65 21.483 95.237 22.19 92.104 22.948 C 91.54 23.084 90.872 23.142 90.304 23.292 C 89.218 23.578 87.974 23.775 86.861 24.052 C 84.567 24.623 82.484 25.271 80.328 25.914 C 78.108 26.575 76.101 27.36 74.115 28.177 C 72.942 28.659 69.397 31.029 69.096 31.645 L 69.096 31.645 Z  M 115.16 43.036 L 119.345 40.899 C 120.797 40.208 122.299 39.413 123.667 38.745 C 126.441 37.389 128.04 32.995 127.999 30.179 C 127.509 30.199 125.516 31.144 124.975 31.342 C 124.603 31.479 124.259 31.596 123.911 31.744 C 121.439 32.794 118.139 34.036 115.795 35.142 C 115.115 35.463 114.457 35.729 113.769 36.024 C 113.228 36.256 112.036 36.724 111.814 36.999 C 111.07 36.962 95.925 44.467 94.037 45.443 C 91.35 46.833 87.97 48.499 85.386 49.936 C 85.08 50.106 77.204 54.275 76.891 54.676 C 76.372 54.762 70.974 57.968 70.112 58.454 C 59.43 64.482 47.599 72.065 37.367 79.004 C 34.524 80.933 30.892 83.463 28.034 85.617 L 25.739 87.329 C 25.476 87.53 25.165 87.663 25.013 87.965 C 26.033 88.843 32.791 91.628 34.403 92.209 C 43.451 95.47 51.92 97.742 61.441 99.376 L 67.483 100.3 L 72.241 100.72 L 68.366 100.378 C 69.105 100.462 69.839 100.582 70.559 100.651 C 71.624 100.753 72.679 100.84 73.776 100.949 C 75.841 101.157 78.238 101.298 80.361 101.335 C 82.999 101.381 84.453 101.516 86.617 100.603 C 88.294 99.894 89.659 99.013 90.992 97.992 C 95.957 94.187 100.375 88.235 103.899 82.849 C 107.587 77.213 110.909 70.915 113.773 64.675 C 115.231 61.498 116.599 58.182 117.888 54.804 C 118.541 53.092 119.107 51.439 119.697 49.622 C 120.023 48.617 121.212 44.945 121.302 44.125 C 119.948 44.31 96.265 57.088 94.012 58.297 C 90.956 59.938 88.029 61.647 85.064 63.258 C 82.182 64.823 79.134 66.672 76.267 68.266 C 70.441 71.504 64.575 75.11 58.757 78.479 C 57.76 79.056 50.352 83.387 50.086 83.691 C 50.584 83.611 74.07 73.525 74.639 73.29 C 75.746 72.832 98.806 62.937 99.184 62.92 C 99.052 63.454 97.624 66.118 97.264 66.901 C 96.664 68.206 95.94 69.692 95.284 70.989 C 91.565 78.346 87.529 87.178 79.411 90.439 L 78.923 90.732 C 78.488 90.742 77.299 91.225 76.775 91.369 C 75.986 91.586 75.223 91.736 74.428 91.899 C 70.686 92.665 65.028 92.266 61.129 91.656 C 56.682 90.96 53.568 90.179 49.258 89.137 C 48.229 88.889 40.792 86.799 40.362 86.516 C 40.604 86.093 44.858 83.368 45.23 83.109 C 53.46 77.389 67.13 68.983 76.02 63.925 C 76.961 63.389 77.835 62.903 78.696 62.41 C 79.411 62 80.72 61.317 81.298 60.897 L 85.457 58.616 C 86.864 57.835 88.155 57.159 89.637 56.314 C 92.438 54.716 95.275 53.376 98.032 51.823 C 98.437 51.595 114.179 43.323 115.159 43.037 L 115.16 43.036 Z " fill-rule="evenodd" fill="#F2F2F2"/></g></svg>
